<svg xmlns="http://www.w3.org/2000/svg" width="27" height="18" viewBox="0 0 27 18">
  <g>
    <path fill="rgb(228,228,228)" fill-rule="evenodd" d="M1 0h25c.55191502 0 1 .44808498 1 1s-.44808498 1-1 1H1c-.55191502 0-1-.44808498-1-1s.44808498-1 1-1z"/>
    <path fill="rgb(228,228,228)" fill-rule="evenodd" d="M1 8h18c.55191502 0 1 .44808498 1 1s-.44808498 1-1 1H1c-.55191502 0-1-.44808498-1-1s.44808498-1 1-1z"/>
    <path fill="rgb(228,228,228)" fill-rule="evenodd" d="M1 16h25c.55191502 0 1 .44808498 1 1s-.44808498 1-1 1H1c-.55191502 0-1-.44808498-1-1s.44808498-1 1-1z"/>
  </g>
</svg>
